<svg width="940" height="849" viewBox="0 0 940 849" fill="none" xmlns="http://www.w3.org/2000/svg">
<path d="M295.488 818.16C286.753 804.38 266.185 772.031 258.073 760.782C252.306 752.783 251.445 730.397 250.226 710.805C249.382 697.234 250.946 684.538 254.11 673.369C258.614 657.468 268.034 639.728 277.797 622.719C286.771 607.084 296.912 595.726 307.152 585.889C328.733 565.158 338.033 562.058 357.067 553.775C371.324 547.571 381.577 546.798 413.545 546.119C425.752 545.859 436.366 540.985 460.318 522.193C473.235 512.059 479.469 493.888 481.929 483.809C484.563 473.012 485.342 454.918 488.777 443.211C491.349 434.447 492.213 421.707 495.868 401.98C497.611 392.575 498.085 381.796 502.218 372.121C509.455 355.176 521.486 338.359 531.572 321C541.093 304.613 551.876 297.451 559.209 287.359C569.581 273.085 589.988 261.563 607.575 254.162C628.663 245.288 645.305 252.991 665.771 255.434C678.652 256.971 695.925 262.761 714.842 270.162C733.758 277.563 753.622 287.332 769.426 294.141C795.872 305.535 815.604 309.939 830.498 312.63C854.809 317.023 868.984 307.732 875.363 305.478C878.292 304.583 883.181 302.349 889.288 298.992C892.004 297.411 893.942 296.079 895.939 294.706" stroke="#CF0909" stroke-width="500" stroke-linecap="round"/>
<path d="M898.875 293.36C898.875 295.581 898.875 297.801 901.782 314.265C904.688 330.729 910.502 361.369 914.466 390.031C918.43 418.693 920.368 444.449 921.124 460.381C922.132 481.624 916.536 497.79 908.476 515.492C905.191 522.707 901.87 525.645 903.279 540.568C904.688 555.491 910.502 582.134 913.497 596.97C916.926 613.957 916.976 619.866 917.71 631.244C918.987 651.025 918.444 666.075 919.178 686.987C919.819 705.225 919.428 738.982 919.67 757.256C920.043 785.373 917.989 810.409 913.328 822.842C912.638 824.682 910.649 825.318 908.931 825.554C907.213 825.789 905.276 825.345 859.464 825.783C813.652 826.22 724.025 827.552 667.921 829.793C611.818 832.033 591.955 835.141 565.977 838.075C539.999 841.008 508.508 843.673 490.106 845.489C471.703 847.306 467.343 848.194 454.196 848.652C419.27 849.867 393.879 848.665 381.966 847.992C341.084 845.684 326.435 843.754 316.063 839.037C310.183 829.853 305.295 820.878 299.914 817.722C298.438 816.827 296.985 815.495 294.02 811.431" stroke="#CF0909" stroke-width="500" stroke-linecap="round"/>
</svg>
